<?xml version="1.0"?>
<svg xmlns="http://www.w3.org/2000/svg" height="512px" viewBox="1 -3 511.99996 511" width="512px" class=""><g><path d="m451.765625 100.890625c0 22.179687-17.980469 40.15625-40.15625 40.15625-22.179687 0-40.15625-17.976563-40.15625-40.15625 0-22.175781 17.976563-40.15625 40.15625-40.15625 22.175781 0 40.15625 17.980469 40.15625 40.15625zm0 0" fill="#fd9226" data-original="#FD9226"/><path d="m124.234375 465.738281c-23.609375 13.628907-53.800781 5.535157-67.429687-18.078125-13.628907-23.609375-5.535157-53.796875 18.078124-67.425781 15.269532-8.816406 34.082032-8.816406 49.351563 0l-3.011719 2.078125c-22.453125 15.574219-28.03125 46.40625-12.453125 68.863281 3.371094 4.863281 7.589844 9.078125 12.453125 12.453125zm0 0" fill="#fece2f" data-original="#FECE2F"/><path d="m30.117188 252.304688c-.21875 0-.453126 0-.671876 0-5.535156-.359376-9.726562-5.136719-9.371093-10.667969.003906-.015625.003906-.03125.003906-.046875.703125-10.453125 2.101563-20.851563 4.1875-31.121094 1.109375-5.433594 6.414063-8.9375 11.84375-7.828125 5.4375 1.109375 8.941406 6.410156 7.832031 11.84375-1.898437 9.386719-3.160156 18.886719-3.785156 28.441406-.347656 5.285157-4.742188 9.390625-10.039062 9.378907zm440.613281-2.191407c-5.265625.015625-9.644531-4.035156-10.039063-9.285156-.726562-9.550781-2.101562-19.042969-4.117187-28.410156-1.09375-5.433594 2.425781-10.730469 7.859375-11.824219 5.332031-1.070312 10.550781 2.296875 11.765625 7.597656 2.214843 10.257813 3.71875 20.65625 4.507812 31.121094.410157 5.527344-3.738281 10.339844-9.265625 10.753906-.21875.03125-.453125.050782-.703125.050782h-.007812zm-416.679688-84.257812c-5.542969-.003907-10.035156-4.503907-10.027343-10.046875 0-1.597656.382812-3.171875 1.113281-4.589844 4.8125-9.335938 10.257812-18.332031 16.292969-26.925781 3.054687-4.625 9.28125-5.902344 13.910156-2.847657 4.625 3.054688 5.902344 9.285157 2.847656 13.910157-.109375.160156-.21875.320312-.332031.472656-5.507813 7.847656-10.476563 16.0625-14.871094 24.585937-1.722656 3.34375-5.171875 5.445313-8.933594 5.441407zm56.472657-69.753907c-5.546876 0-10.039063-4.496093-10.035157-10.042968 0-3.003906 1.347657-5.847656 3.667969-7.753906 3.785156-3.101563 7.679688-6.105469 11.675781-8.964844 4.539063-3.265625 9.195313-6.367188 13.933594-9.277344 4.882813-2.625 10.972656-.796875 13.597656 4.089844 2.410157 4.480468 1.082031 10.058594-3.085937 12.976562-8.167969 5.023438-15.984375 10.589844-23.402344 16.664063-1.785156 1.484375-4.03125 2.296875-6.351562 2.308593zm79.429687-41.621093c-5.546875 0-10.039063-4.496094-10.039063-10.039063 0-4.488281 2.980469-8.433594 7.296876-9.65625 10.097656-2.875 20.378906-5.054687 30.769531-6.527344 5.492187-.777343 10.578125 3.042969 11.355469 8.535157.78125 5.492187-3.042969 10.574219-8.53125 11.351562-9.496094 1.339844-18.886719 3.328125-28.109376 5.953125-.894531.253906-1.816406.382813-2.742187.382813zm118.972656-.5625c-.898437.003906-1.792969-.121094-2.660156-.359375-9.230469-2.519532-18.621094-4.410156-28.109375-5.652344-5.5-.722656-9.375-5.765625-8.652344-11.265625.71875-5.5 5.761719-9.375 11.261719-8.652344 10.410156 1.371094 20.714844 3.441407 30.84375 6.203125 5.347656 1.453125 8.507813 6.96875 7.054687 12.320313-1.191406 4.378906-5.167968 7.414062-9.707031 7.40625zm0 0" fill="#b3e4e8" data-original="#B3E4E8" class="" style="fill:#B3BE4A" data-old_color="#B3E4E8"/><path d="m470.738281 281.597656h.671875c5.53125.371094 9.714844 5.152344 9.347656 10.683594-.699218 10.453125-2.09375 20.851562-4.175781 31.121094-1.109375 5.433594-6.414062 8.9375-11.847656 7.828125s-8.9375-6.410157-7.828125-11.84375c1.90625-9.398438 3.183594-18.914063 3.824219-28.480469.382812-5.246094 4.75-9.308594 10.007812-9.308594zm-440.621093 2.179688c5.265624-.015625 9.648437 4.042968 10.039062 9.296875.722656 9.550781 2.09375 19.042969 4.105469 28.410156 1.09375 5.433594-2.425781 10.726563-7.859375 11.820313-5.332032 1.074218-10.550782-2.292969-11.765625-7.59375-2.226563-10.265626-3.75-20.671876-4.558594-31.144532-.414063-5.527344 3.730469-10.34375 9.257813-10.761718zm416.6875 84.269531c5.546874.003906 10.035156 4.503906 10.03125 10.046875-.003907 1.597656-.386719 3.167969-1.117188 4.589844-4.8125 9.332031-10.253906 18.324218-16.292969 26.914062-3.257812 4.484375-9.539062 5.476563-14.023437 2.21875-4.382813-3.1875-5.449219-9.28125-2.398438-13.765625 5.511719-7.839843 10.484375-16.050781 14.875-24.574219 1.726563-3.339843 5.175782-5.4375 8.9375-5.429687zm-56.46875 69.742187c5.542968-.003906 10.042968 4.484376 10.046874 10.03125 0 3.011719-1.351562 5.867188-3.683593 7.777344-8.113281 6.652344-16.667969 12.742188-25.609375 18.230469-4.542969 3.179687-10.800782 2.074219-13.980469-2.464844-3.179687-4.542969-2.078125-10.804687 2.464844-13.984375.320312-.222656.65625-.429687 1.003906-.617187 8.167969-5.015625 15.988281-10.578125 23.402344-16.65625 1.785156-1.492188 4.035156-2.3125 6.363281-2.316407zm-79.429688 41.582032c5.542969-.027344 10.058594 4.449218 10.082031 9.992187.019531 4.519531-2.980469 8.496094-7.332031 9.714844-10.101562 2.871094-20.386719 5.046875-30.78125 6.515625-5.503906.679688-10.515625-3.230469-11.195312-8.730469-.664063-5.371093 3.042968-10.296875 8.382812-11.148437 9.496094-1.339844 18.886719-3.328125 28.109375-5.953125.890625-.253907 1.808594-.386719 2.734375-.390625zm-118.964844.5625c.894532 0 1.785156.121094 2.648438.359375 9.230468 2.523437 18.621094 4.414062 28.109375 5.664062 5.496093.722657 9.367187 5.765625 8.644531 11.261719-.722656 5.5-5.765625 9.367188-11.265625 8.644531-10.40625-1.363281-20.707031-3.433593-30.828125-6.203125-5.351562-1.453125-8.511719-6.96875-7.054688-12.320312 1.1875-4.378906 5.167969-7.414063 9.703126-7.40625zm0 0" fill="#b3e4e8" data-original="#B3E4E8" class="" style="fill:#B3BE4A" data-old_color="#B3E4E8"/><path d="m30.117188 291.636719c-16.632813 0-30.117188-13.484375-30.117188-30.117188 0-16.632812 13.484375-30.117187 30.117188-30.117187 16.632812 0 30.117187 13.484375 30.117187 30.117187 0 16.632813-13.484375 30.117188-30.117187 30.117188zm0 0" fill="#6fbbc6" data-original="#6FBBC6" class="active-path" style="fill:#C2D3CD" data-old_color="#6FBBC6"/><path d="m471.84375 291.636719c-16.632812 0-30.117188-13.484375-30.117188-30.117188 0-16.632812 13.484376-30.117187 30.117188-30.117187s30.117188 13.484375 30.117188 30.117187c0 16.632813-13.484376 30.117188-30.117188 30.117188zm0 0" fill="#6fbbc6" data-original="#6FBBC6" class="active-path" style="fill:#C2D3CD" data-old_color="#6FBBC6"/><g fill="#fece2f"><path d="m411.609375 30.617188c-5.546875 0-10.039063-4.496094-10.039063-10.039063v-10.039063c0-5.542968 4.492188-10.039062 10.039063-10.039062 5.542969 0 10.039063 4.496094 10.039063 10.039062v10.039063c0 5.542969-4.496094 10.039063-10.039063 10.039063zm0 0" data-original="#000000" class="" style="fill:#FFFFFF" data-old_color="#ffffff"/><path d="m354.816406 54.140625c-2.664062 0-5.214844-1.058594-7.097656-2.941406l-7.097656-7.097657c-3.988282-3.851562-4.097656-10.207031-.246094-14.195312s10.207031-4.101562 14.195312-.25c.082032.082031.164063.164062.246094.25l7.097656 7.097656c3.917969 3.917969 3.917969 10.277344-.003906 14.195313-1.878906 1.882812-4.433594 2.9375-7.09375 2.941406zm0 0" data-original="#000000" class="" style="fill:#FFFFFF" data-old_color="#ffffff"/><path d="m331.292969 110.929688h-10.039063c-5.542968 0-10.039062-4.492188-10.039062-10.039063 0-5.542969 4.496094-10.039063 10.039062-10.039063h10.039063c5.546875 0 10.039062 4.496094 10.039062 10.039063 0 5.546875-4.492187 10.039063-10.039062 10.039063zm0 0" data-original="#000000" class="" style="fill:#FFFFFF" data-old_color="#ffffff"/><path d="m347.71875 174.820312c-5.546875 0-10.039062-4.496093-10.039062-10.039062.003906-2.664062 1.058593-5.214844 2.941406-7.097656l7.097656-7.097656c3.851562-3.988282 10.207031-4.097657 14.195312-.246094 3.988282 3.851562 4.097657 10.207031.246094 14.195312-.082031.085938-.164062.167969-.246094.246094l-7.097656 7.097656c-1.882812 1.882813-4.4375 2.941406-7.097656 2.941406zm0 0" data-original="#000000" class="" style="fill:#FFFFFF" data-old_color="#ffffff"/><path d="m411.609375 201.285156c-5.546875 0-10.039063-4.496094-10.039063-10.039062v-10.039063c0-5.546875 4.492188-10.039062 10.039063-10.039062 5.542969 0 10.039063 4.492187 10.039063 10.039062v10.039063c0 5.542968-4.496094 10.039062-10.039063 10.039062zm0 0" data-original="#000000" class="" style="fill:#FFFFFF" data-old_color="#ffffff"/><path d="m475.496094 174.820312c-2.660156 0-5.214844-1.058593-7.097656-2.941406l-7.097657-7.097656c-3.988281-3.851562-4.097656-10.207031-.246093-14.195312 3.851562-3.988282 10.207031-4.097657 14.195312-.246094.085938.082031.167969.164062.246094.246094l7.097656 7.097656c3.921875 3.921875 3.921875 10.277344 0 14.199218-1.882812 1.878907-4.433594 2.9375-7.097656 2.9375zm0 0" data-original="#000000" class="" style="fill:#FFFFFF" data-old_color="#ffffff"/><path d="m501.960938 110.929688h-10.039063c-5.542969 0-10.039063-4.492188-10.039063-10.039063 0-5.542969 4.496094-10.039063 10.039063-10.039063h10.039063c5.542968 0 10.039062 4.496094 10.039062 10.039063 0 5.546875-4.496094 10.039063-10.039062 10.039063zm0 0" data-original="#000000" class="" style="fill:#FFFFFF" data-old_color="#ffffff"/><path d="m468.398438 54.140625c-5.542969-.003906-10.035157-4.5-10.035157-10.042969 0-2.660156 1.058594-5.210937 2.9375-7.09375l7.097657-7.097656c3.851562-3.988281 10.207031-4.101562 14.195312-.246094 3.988281 3.851563 4.101562 10.207032.25 14.195313-.082031.082031-.164062.164062-.25.246093l-7.097656 7.097657c-1.882813 1.882812-4.433594 2.9375-7.097656 2.941406zm0 0" data-original="#000000" class="" style="fill:#FFFFFF" data-old_color="#ffffff"/></g></g> </svg>
