<?xml version="1.0"?>
<svg xmlns="http://www.w3.org/2000/svg" xmlns:xlink="http://www.w3.org/1999/xlink" version="1.1" id="Capa_1" x="0px" y="0px" viewBox="0 0 512 512" style="enable-background:new 0 0 512 512;" xml:space="preserve" width="512px" height="512px"><g><g>
	<g>
		<path d="M479.497,308.399L420.996,191.4c-0.3-13.2-2.401-26.1-5.099-38.701c-2.401,2.701-4.801,5.7-7.5,8.401    c-41.7,41.7-105.3,48.9-145.501,48.9c-12.9,0-23.099-0.601-29.7-1.201l-26.7,26.7c-5.398,6.002-15.602,5.999-20.999,0    c-6-5.7-6-15.3,0-21l26.699-26.4V187.8c-2.399-26.7-7.2-120.3,47.701-175.201c2.699-2.701,5.4-5.099,8.399-7.5    C254.497,2.1,240.396,0,225.996,0c-107.401,0-195,87.599-195,195c0,52.8,21.899,103.799,60,140.4V497c0,8.399,6.599,15,15,15h180    c8.401,0,15-6.601,15-15v-46h105c8.401,0,15-6.601,15-15V330h45c5.099,0,9.901-2.701,12.9-7.2    C481.597,318.6,481.597,312.899,479.497,308.399z" data-original="#000000" class="active-path" data-old_color="#000000" fill="#B3BE4A"/>
	</g>
</g><g>
	<g>
		<path d="M422.796,1.941c-27.001-3.001-99.6-8.101-141.599,33.9c-34.501,34.199-40.201,90-40.201,125.099l36-35.7v-36.3    c0-8.399,6.599-15,15-15c8.399,0,15,6.601,15,15v6.301l33-33.6V25.04c0-8.099,6.601-15,15-15c8.401,0,15,6.901,15,15V53h27.899    c8.101,0,15,6.599,15,15c0,8.399-6.899,15-15,15h-36.599l-33.6,33h6.299c8.401,0,15,6.599,15,15c0.001,8.399-6.599,15-14.999,15    h-36.299l-35.7,35.941c34.799,0,90.899-6,125.099-40.201C429.397,99.741,425.795,28.94,422.796,1.941z" data-original="#000000" class="active-path" data-old_color="#000000" fill="#B3BE4A"/>
	</g>
</g></g> </svg>
